<?xml version="1.0" encoding="UTF-8"?>
<!DOCTYPE svg PUBLIC "-//W3C//DTD SVG 1.1//EN" "http://www.w3.org/Graphics/SVG/1.1/DTD/svg11.dtd">
<!-- Creator: CorelDRAW X8 -->
<svg xmlns="http://www.w3.org/2000/svg" xml:space="preserve" width="100mm" height="100mm" version="1.1" style="shape-rendering:geometricPrecision; text-rendering:geometricPrecision; image-rendering:optimizeQuality; fill-rule:evenodd; clip-rule:evenodd"
viewBox="0 0 10000 10000"
 xmlns:xlink="http://www.w3.org/1999/xlink">
 <defs>
  <style type="text/css">
   <![CDATA[
    .str1 {stroke:black;stroke-width:600}
    .str0 {stroke:black;stroke-width:20}
    .fil4 {fill:none}
    .fil1 {fill:black}
    .fil2 {fill:black}
    .fil0 {fill:white}
    .fil3 {fill:white;fill-rule:nonzero}
   ]]>
  </style>
 </defs>
 <g id="Camada_x0020_1">
  <metadata id="CorelCorpID_0Corel-Layer"/>
  <rect id="Fundo" class="fil0" width="10000" height="10000" rx="1500" ry="1500"/>
  <g>
   <path class="fil1" d="M1500 1000l7500 0c550,0 1000,450 1000,1000l0 6500c0,825 -675,1500 -1500,1500l-7000 0c-825,0 -1500,-675 -1500,-1500l0 -6000c0,-825 675,-1500 1500,-1500zm7500 600l-7500 0c-247,0 -472,101 -635,265 -164,163 -265,388 -265,635l0 6000c0,247 101,472 265,635 163,164 388,265 635,265l7000 0c247,0 472,-101 635,-265 164,-163 265,-388 265,-635l0 -6500c0,-109 -45,-209 -118,-282 -73,-73 -173,-118 -282,-118z"/>
  </g>
  <g>
   <path class="fil2" d="M1500 0l6250 0c550,0 1000,450 1000,1000l0 6750c0,550 -450,1000 -1000,1000l-6750 0c-550,0 -1000,-450 -1000,-1000l0 -6250c0,-825 675,-1500 1500,-1500z"/>
   <path id="1" class="fil1" d="M1500 0l6250 0c550,0 1000,450 1000,1000l0 6750c0,550 -450,1000 -1000,1000l-6750 0c-550,0 -1000,-450 -1000,-1000l0 -6250c0,-825 675,-1500 1500,-1500zm6250 600l-6250 0c-247,0 -472,101 -635,265 -164,163 -265,388 -265,635l0 6250c0,109 45,209 118,282 73,73 173,118 282,118l6750 0c109,0 209,-45 282,-118 73,-73 118,-173 118,-282l0 -6750c0,-109 -45,-209 -118,-282 -73,-73 -173,-118 -282,-118z"/>
  </g>
  <path class="fil3" d="M2433 2127l-620 -116 0 -578 1306 0c188,0 436,-11 744,-33 67,-6 149,-11 248,-17 100,-5 215,-8 348,-8 600,0 1072,55 1413,165 342,110 581,267 716,471 135,204 202,461 202,769 0,414 -128,755 -384,1026 -257,270 -583,432 -980,487 551,0 985,124 1302,372 317,248 476,598 476,1050 0,590 -203,1056 -608,1398 -405,341 -1093,512 -2063,512 -154,0 -303,-4 -446,-12 -144,-8 -246,-13 -306,-13 -199,-16 -414,-24 -645,-24l-1340 0 0 -546 637 -91 0 -4812zm1397 1960c100,11 323,16 670,16 303,0 526,-103 670,-310 143,-207 215,-497 215,-872 0,-347 -78,-601 -232,-761 -154,-160 -405,-240 -752,-240 -83,0 -179,5 -290,13 -110,8 -204,18 -281,29l0 2125zm0 2902c111,44 328,66 653,66 408,0 705,-108 889,-323 185,-215 277,-526 277,-934 0,-386 -85,-661 -256,-827 -171,-165 -441,-248 -810,-248 -303,0 -554,6 -753,17l0 2249z"/>
  <rect class="fil1" x="9400" y="1600" width="600" height="1000"/>
  <rect class="fil1" transform="matrix(4.71046E-14 -1.77857 1.11163 2.9441E-14 7400 600)" width="337" height="900"/>
  <g>
   <path class="fil2" d="M8400 0l0 1600 1600 0 0 -100c0,-825 -675,-1500 -1500,-1500l-100 0z"/>
   <path id="1" class="fil1" d="M8400 0l0 1600 1600 0 0 -100c0,-825 -675,-1500 -1500,-1500l-100 0zm599 999l0 -247c50,33 97,71 139,114 41,40 78,85 110,133l-249 0z"/>
  </g>
  <rect class="fil4 str0" x="7954" y="2897" width="70.55" height="57.33"/>
  <path class="fil4 str1" d="M1962 8450l-473 0c-344,0 -625,281 -625,625l0 0c0,344 281,625 625,625l473 0"/>
  <rect class="fil2" x="454" y="8587" width="344" height="226"/>
 </g>
</svg>
